{
	"asset":{
		"generator":"Khronos glTF Blender I/O v4.2.60",
		"version":"2.0"
	},
	"scene":0,
	"scenes":[
		{
			"name":"Scene",
			"nodes":[
				0
			]
		}
	],
	"nodes":[
		{
			"mesh":0,
			"name":"Procedural Terrestrial Planet"
		}
	],
	"materials":[
		{
			"doubleSided":true,
			"name":"PlanetSurface",
			"pbrMetallicRoughness":{
				"baseColorTexture":{
					"index":0
				},
				"metallicFactor":0,
				"roughnessFactor":0.9727272987365723
			}
		}
	],
	"meshes":[
		{
			"name":"Sphere",
			"primitives":[
				{
					"attributes":{
						"POSITION":0,
						"NORMAL":1,
						"TEXCOORD_0":2
					},
					"indices":3,
					"material":0
				}
			]
		}
	],
	"textures":[
		{
			"sampler":0,
			"source":0
		}
	],
	"images":[
		{
			"mimeType":"image/png",
			"name":"diffuse",
			"uri":"planetDiffuse.png"
		}
	],
	"accessors":[
		{
			"bufferView":0,
			"componentType":5126,
			"count":2110,
			"max":[
				68.7298583984375,
				68.72986602783203,
				68.72985076904297
			],
			"min":[
				-68.72984313964844,
				-68.72986602783203,
				-68.72986602783203
			],
			"type":"VEC3"
		},
		{
			"bufferView":1,
			"componentType":5126,
			"count":2110,
			"type":"VEC3"
		},
		{
			"bufferView":2,
			"componentType":5126,
			"count":2110,
			"type":"VEC2"
		},
		{
			"bufferView":3,
			"componentType":5123,
			"count":11904,
			"type":"SCALAR"
		}
	],
	"bufferViews":[
		{
			"buffer":0,
			"byteLength":25320,
			"byteOffset":0,
			"target":34962
		},
		{
			"buffer":0,
			"byteLength":25320,
			"byteOffset":25320,
			"target":34962
		},
		{
			"buffer":0,
			"byteLength":16880,
			"byteOffset":50640,
			"target":34962
		},
		{
			"buffer":0,
			"byteLength":23808,
			"byteOffset":67520,
			"target":34963
		}
	],
	"samplers":[
		{
			"magFilter":9729,
			"minFilter":9987
		}
	],
	"buffers":[
		{
			"byteLength":91328,
			"uri":"planet.bin"
		}
	]
}
